<svg width="700" height="581" fill="none" xmlns="http://www.w3.org/2000/svg"><path opacity=".095" d="M700 393.249V280.751c0-6.988-3.702-13.431-9.725-16.9l-97.05-56.249a19.476 19.476 0 0 0-19.45 0l-97.05 56.249c-6.023 3.469-9.725 9.961-9.725 16.9v112.498c0 6.988 3.702 13.431 9.725 16.9l97.05 56.249a19.476 19.476 0 0 0 19.45 0l97.05-56.249c5.973-3.469 9.725-9.961 9.725-16.9Z" fill="url('#paint0_linear_51_1471')"/><path opacity=".095" d="M397 491.872v53.256c0 3.317 1.77 6.336 4.573 8.019l45.829 26.628a9.243 9.243 0 0 0 9.196 0l45.829-26.628c2.852-1.634 4.573-4.702 4.573-8.019v-53.256c0-3.317-1.77-6.336-4.573-8.019l-45.829-26.628a9.243 9.243 0 0 0-9.196 0l-45.829 26.628c-2.803 1.634-4.573 4.702-4.573 8.019Z" fill="url('#paint1_linear_51_1471')"/><path opacity=".095" d="M424 387.178V155.822c0-14.333-7.66-27.628-20.064-34.794L203.589 5.375c-12.454-7.167-27.774-7.167-40.178 0L-36.936 121.028C-49.34 128.244-57 141.489-57 155.822v231.356c0 14.333 7.66 27.628 20.064 34.794l200.347 115.653c12.404 7.167 27.724 7.167 40.178 0l200.347-115.653C416.34 414.806 424 401.511 424 387.178Z" fill="url('#paint2_linear_51_1471')"/><defs><linearGradient id="paint0_linear_51_1471" x1="583.453" y1="204.911" x2="583.453" y2="469.023" gradientUnits="userSpaceOnUse"><stop stop-color="#D4145A"/><stop offset="1" stop-color="#2E3192"/></linearGradient><linearGradient id="paint1_linear_51_1471" x1="452.015" y1="581" x2="452.015" y2="455.982" gradientUnits="userSpaceOnUse"><stop stop-color="#D4145A"/><stop offset="1" stop-color="#2E3192"/></linearGradient><linearGradient id="paint2_linear_51_1471" x1="183.49" y1=".006" x2="183.49" y2="543.02" gradientUnits="userSpaceOnUse"><stop stop-color="#D4145A"/><stop offset="1" stop-color="#2E3192"/></linearGradient></defs></svg>