<svg width="1255" height="264" fill="none" xmlns="http://www.w3.org/2000/svg"><path opacity=".095" d="M1255 188.249V75.751c0-6.988-3.7-13.43-9.72-16.9l-97.06-56.25a19.457 19.457 0 0 0-19.44 0l-97.06 56.25c-6.02 3.47-9.72 9.962-9.72 16.9v112.498c0 6.988 3.7 13.431 9.72 16.9l97.06 56.249a19.458 19.458 0 0 0 19.44 0l97.06-56.249c5.97-3.469 9.72-9.961 9.72-16.9Z" fill="url('#paint0_linear_588_2')"/><path opacity=".095" d="M0 98.872v53.256c0 3.317 1.77 6.336 4.573 8.019l45.83 26.628a9.242 9.242 0 0 0 9.195 0l45.829-26.628c2.852-1.634 4.573-4.702 4.573-8.019V98.872c0-3.317-1.77-6.336-4.573-8.019l-45.83-26.628a9.24 9.24 0 0 0-9.195 0L4.573 90.853C1.77 92.487 0 95.555 0 98.872Z" fill="url('#paint1_linear_588_2')"/><defs><linearGradient id="paint0_linear_588_2" x1="1138.45" y1="-.089" x2="1138.45" y2="264.023" gradientUnits="userSpaceOnUse"><stop stop-color="#D4145A"/><stop offset="1" stop-color="#2E3192"/></linearGradient><linearGradient id="paint1_linear_588_2" x1="55.015" y1="188" x2="55.015" y2="62.982" gradientUnits="userSpaceOnUse"><stop stop-color="#D4145A"/><stop offset="1" stop-color="#2E3192"/></linearGradient></defs></svg>